<?xml version="1.0" encoding="UTF-8" standalone="no"?><!DOCTYPE svg PUBLIC "-//W3C//DTD SVG 1.1//EN" "http://www.w3.org/Graphics/SVG/1.1/DTD/svg11.dtd"><!-- Generated by graphviz version 2.40.1 (20161225.0304)
 --><!-- Title: G Pages: 1 --><svg xmlns="http://www.w3.org/2000/svg" xmlns:xlink="http://www.w3.org/1999/xlink" width="286pt" height="372pt" viewBox="0.00 0.00 286.00 371.60">
<g id="graph0" class="graph" transform="scale(1 1) rotate(0) translate(4 367.6)">
<title>G</title>
<!-- <polygon fill="#ffffff" stroke="transparent" points="-4,4 -4,-367.6 282,-367.6 282,4 -4,4"/> -->
<!-- 5 -->
<g id="node1" class="node">
<title>5</title>
<ellipse fill="none" stroke="#fff" cx="149" cy="-345.6" rx="27" ry="18"/>
<text text-anchor="middle" x="149" y="-341.4" font-family="Times,serif" font-size="14.00" fill="#000000">5</text>
</g>
<!-- 4 -->
<g id="node2" class="node">
<title>4</title>
<ellipse fill="none" stroke="#000000" cx="113" cy="-273.6" rx="27" ry="18"/>
<text text-anchor="middle" x="113" y="-269.4" font-family="Times,serif" font-size="14.00" fill="#000000">4</text>
</g>
<!-- 5&#45;&gt;4 -->
<g id="edge1" class="edge">
<title>5-&gt;4</title>
<path fill="none" stroke="#000000" d="M140.2854,-328.1708C136.0403,-319.6807 130.8464,-309.2929 126.1337,-299.8674"/>
<polygon fill="#000000" stroke="#000000" points="129.237,-298.2477 121.6343,-290.8687 122.976,-301.3782 129.237,-298.2477"/>
</g>
<!-- 7 -->
<g id="node3" class="node">
<title>7</title>
<ellipse fill="none" stroke="#000000" cx="185" cy="-273.6" rx="27" ry="18"/>
<text text-anchor="middle" x="185" y="-269.4" font-family="Times,serif" font-size="14.00" fill="#000000">7</text>
</g>
<!-- 5&#45;&gt;7 -->
<g id="edge2" class="edge">
<title>5-&gt;7</title>
<path fill="none" stroke="#000000" d="M157.7146,-328.1708C161.9597,-319.6807 167.1536,-309.2929 171.8663,-299.8674"/>
<polygon fill="#000000" stroke="#000000" points="175.024,-301.3782 176.3657,-290.8687 168.763,-298.2477 175.024,-301.3782"/>
</g>
<!-- 3 -->
<g id="node6" class="node">
<title>3</title>
<ellipse fill="none" stroke="#000000" cx="73" cy="-201.6" rx="27" ry="18"/>
<text text-anchor="middle" x="73" y="-197.4" font-family="Times,serif" font-size="14.00" fill="#000000">3</text>
</g>
<!-- 4&#45;&gt;3 -->
<g id="edge5" class="edge">
<title>4-&gt;3</title>
<path fill="none" stroke="#000000" d="M103.5206,-256.537C98.6885,-247.8393 92.7111,-237.0799 87.3304,-227.3948"/>
<polygon fill="#000000" stroke="#000000" points="90.3274,-225.5823 82.4114,-218.5405 84.2083,-228.9819 90.3274,-225.5823"/>
</g>
<!-- null0 -->
<g id="node7" class="node">
<title>null0</title>
<ellipse fill="#000000" stroke="#000000" cx="120" cy="-201.6" rx="1.8" ry="1.8"/>
</g>
<!-- 4&#45;&gt;null0 -->
<g id="edge6" class="edge">
<title>4-&gt;null0</title>
<path fill="none" stroke="#000000" d="M114.7664,-255.4314C116.0473,-242.2567 117.7426,-224.8195 118.8516,-213.4119"/>
<polygon fill="#000000" stroke="#000000" points="122.3402,-213.6985 119.8243,-203.4068 115.373,-213.0211 122.3402,-213.6985"/>
</g>
<!-- 6 -->
<g id="node4" class="node">
<title>6</title>
<ellipse fill="none" stroke="#000000" cx="179" cy="-201.6" rx="27" ry="18"/>
<text text-anchor="middle" x="179" y="-197.4" font-family="Times,serif" font-size="14.00" fill="#000000">6</text>
</g>
<!-- 7&#45;&gt;6 -->
<g id="edge3" class="edge">
<title>7-&gt;6</title>
<path fill="none" stroke="#000000" d="M183.4859,-255.4314C182.8442,-247.731 182.0812,-238.5743 181.3681,-230.0166"/>
<polygon fill="#000000" stroke="#000000" points="184.8529,-229.688 180.5344,-220.0133 177.8771,-230.2694 184.8529,-229.688"/>
</g>
<!-- 8 -->
<g id="node5" class="node">
<title>8</title>
<ellipse fill="none" stroke="#000000" cx="251" cy="-201.6" rx="27" ry="18"/>
<text text-anchor="middle" x="251" y="-197.4" font-family="Times,serif" font-size="14.00" fill="#000000">8</text>
</g>
<!-- 7&#45;&gt;8 -->
<g id="edge4" class="edge">
<title>7-&gt;8</title>
<path fill="none" stroke="#000000" d="M199.321,-257.9771C208.2292,-248.259 219.8452,-235.587 229.8075,-224.7191"/>
<polygon fill="#000000" stroke="#000000" points="232.5297,-226.9291 236.7069,-217.1924 227.3696,-222.199 232.5297,-226.9291"/>
</g>
<!-- null5 -->
<g id="node14" class="node">
<title>null5</title>
<ellipse fill="#000000" stroke="#000000" cx="168" cy="-129.6" rx="1.8" ry="1.8"/>
</g>
<!-- 6&#45;&gt;null5 -->
<g id="edge13" class="edge">
<title>6-&gt;null5</title>
<path fill="none" stroke="#000000" d="M176.2242,-183.4314C174.2114,-170.2567 171.5474,-152.8195 169.8046,-141.4119"/>
<polygon fill="#000000" stroke="#000000" points="173.2462,-140.7634 168.276,-131.4068 166.3265,-141.8207 173.2462,-140.7634"/>
</g>
<!-- null6 -->
<g id="node15" class="node">
<title>null6</title>
<ellipse fill="#000000" stroke="#000000" cx="190" cy="-129.6" rx="1.8" ry="1.8"/>
</g>
<!-- 6&#45;&gt;null6 -->
<g id="edge14" class="edge">
<title>6-&gt;null6</title>
<path fill="none" stroke="#000000" d="M181.7758,-183.4314C183.7886,-170.2567 186.4526,-152.8195 188.1954,-141.4119"/>
<polygon fill="#000000" stroke="#000000" points="191.6735,-141.8207 189.724,-131.4068 184.7538,-140.7634 191.6735,-141.8207"/>
</g>
<!-- null7 -->
<g id="node16" class="node">
<title>null7</title>
<ellipse fill="#000000" stroke="#000000" cx="240" cy="-129.6" rx="1.8" ry="1.8"/>
</g>
<!-- 8&#45;&gt;null7 -->
<g id="edge15" class="edge">
<title>8-&gt;null7</title>
<path fill="none" stroke="#000000" d="M248.2242,-183.4314C246.2114,-170.2567 243.5474,-152.8195 241.8046,-141.4119"/>
<polygon fill="#000000" stroke="#000000" points="245.2462,-140.7634 240.276,-131.4068 238.3265,-141.8207 245.2462,-140.7634"/>
</g>
<!-- null8 -->
<g id="node17" class="node">
<title>null8</title>
<ellipse fill="#000000" stroke="#000000" cx="262" cy="-129.6" rx="1.8" ry="1.8"/>
</g>
<!-- 8&#45;&gt;null8 -->
<g id="edge16" class="edge">
<title>8-&gt;null8</title>
<path fill="none" stroke="#000000" d="M253.7758,-183.4314C255.7886,-170.2567 258.4526,-152.8195 260.1954,-141.4119"/>
<polygon fill="#000000" stroke="#000000" points="263.6735,-141.8207 261.724,-131.4068 256.7538,-140.7634 263.6735,-141.8207"/>
</g>
<!-- 2 -->
<g id="node8" class="node">
<title>2</title>
<ellipse fill="none" stroke="#000000" cx="50" cy="-129.6" rx="27" ry="18"/>
<text text-anchor="middle" x="50" y="-125.4" font-family="Times,serif" font-size="14.00" fill="#000000">2</text>
</g>
<!-- 3&#45;&gt;2 -->
<g id="edge7" class="edge">
<title>3-&gt;2</title>
<path fill="none" stroke="#000000" d="M67.3146,-183.8022C64.7437,-175.7541 61.6466,-166.0588 58.7868,-157.1067"/>
<polygon fill="#000000" stroke="#000000" points="62.0768,-155.9033 55.6997,-147.4425 55.4087,-158.0334 62.0768,-155.9033"/>
</g>
<!-- null1 -->
<g id="node9" class="node">
<title>null1</title>
<ellipse fill="#000000" stroke="#000000" cx="97" cy="-129.6" rx="1.8" ry="1.8"/>
</g>
<!-- 3&#45;&gt;null1 -->
<g id="edge8" class="edge">
<title>3-&gt;null1</title>
<path fill="none" stroke="#000000" d="M78.9326,-183.8022C83.3702,-170.4895 89.31,-152.67 93.1461,-141.1618"/>
<polygon fill="#000000" stroke="#000000" points="96.549,-142.0208 96.391,-131.4271 89.9082,-139.8071 96.549,-142.0208"/>
</g>
<!-- 1 -->
<g id="node10" class="node">
<title>1</title>
<ellipse fill="none" stroke="#000000" cx="27" cy="-57.6" rx="27" ry="18"/>
<text text-anchor="middle" x="27" y="-53.4" font-family="Times,serif" font-size="14.00" fill="#000000">1</text>
</g>
<!-- 2&#45;&gt;1 -->
<g id="edge9" class="edge">
<title>2-&gt;1</title>
<path fill="none" stroke="#000000" d="M44.3146,-111.8022C41.7437,-103.7541 38.6466,-94.0588 35.7868,-85.1067"/>
<polygon fill="#000000" stroke="#000000" points="39.0768,-83.9033 32.6997,-75.4425 32.4087,-86.0334 39.0768,-83.9033"/>
</g>
<!-- null2 -->
<g id="node11" class="node">
<title>null2</title>
<ellipse fill="#000000" stroke="#000000" cx="74" cy="-57.6" rx="1.8" ry="1.8"/>
</g>
<!-- 2&#45;&gt;null2 -->
<g id="edge10" class="edge">
<title>2-&gt;null2</title>
<path fill="none" stroke="#000000" d="M55.9326,-111.8022C60.3702,-98.4895 66.31,-80.67 70.1461,-69.1618"/>
<polygon fill="#000000" stroke="#000000" points="73.549,-70.0208 73.391,-59.4271 66.9082,-67.8071 73.549,-70.0208"/>
</g>
<!-- null3 -->
<g id="node12" class="node">
<title>null3</title>
<ellipse fill="#000000" stroke="#000000" cx="16" cy="-1.8" rx="1.8" ry="1.8"/>
</g>
<!-- 1&#45;&gt;null3 -->
<g id="edge11" class="edge">
<title>1-&gt;null3</title>
<path fill="none" stroke="#000000" d="M23.459,-39.6374C21.7738,-31.0891 19.8064,-21.1091 18.3154,-13.5455"/>
<polygon fill="#000000" stroke="#000000" points="21.7174,-12.7061 16.3493,-3.5719 14.8496,-14.06 21.7174,-12.7061"/>
</g>
<!-- null4 -->
<g id="node13" class="node">
<title>null4</title>
<ellipse fill="#000000" stroke="#000000" cx="38" cy="-1.8" rx="1.8" ry="1.8"/>
</g>
<!-- 1&#45;&gt;null4 -->
<g id="edge12" class="edge">
<title>1-&gt;null4</title>
<path fill="none" stroke="#000000" d="M30.541,-39.6374C32.2262,-31.0891 34.1936,-21.1091 35.6846,-13.5455"/>
<polygon fill="#000000" stroke="#000000" points="39.1504,-14.06 37.6507,-3.5719 32.2826,-12.7061 39.1504,-14.06"/>
</g>
</g>
</svg>