<?xml version="1.0" encoding="UTF-8" standalone="no"?><!DOCTYPE svg PUBLIC "-//W3C//DTD SVG 1.1//EN" "http://www.w3.org/Graphics/SVG/1.1/DTD/svg11.dtd"><!-- Generated by graphviz version 2.40.1 (20161225.0304)
 --><!-- Title: G Pages: 1 --><svg xmlns="http://www.w3.org/2000/svg" xmlns:xlink="http://www.w3.org/1999/xlink" width="240pt" height="188pt" viewBox="0.00 0.00 240.00 188.00">
<g id="graph0" class="graph" transform="scale(1 1) rotate(0) translate(4 184)">
<title>G</title>
<!-- <polygon fill="#ffffff" stroke="transparent" points="-4,4 -4,-184 236,-184 236,4 -4,4"/> -->
<!-- 5 -->
<g id="node1" class="node">
<title>5</title>
<ellipse fill="none" stroke="#000000" cx="103" cy="-162" rx="27" ry="18"/>
<text text-anchor="middle" x="103" y="-157.8" font-family="Times,serif" font-size="14.00" fill="#000000">5</text>
</g>
<!-- 4 -->
<g id="node2" class="node">
<title>4</title>
<ellipse fill="none" stroke="#000000" cx="67" cy="-90" rx="27" ry="18"/>
<text text-anchor="middle" x="67" y="-85.8" font-family="Times,serif" font-size="14.00" fill="#000000">4</text>
</g>
<!-- 5&#45;&gt;4 -->
<g id="edge1" class="edge">
<title>5-&gt;4</title>
<path fill="none" stroke="#000000" d="M94.2854,-144.5708C90.0403,-136.0807 84.8464,-125.6929 80.1337,-116.2674"/>
<polygon fill="#000000" stroke="#000000" points="83.237,-114.6477 75.6343,-107.2687 76.976,-117.7782 83.237,-114.6477"/>
</g>
<!-- 7 -->
<g id="node3" class="node">
<title>7</title>
<ellipse fill="none" stroke="#000000" cx="139" cy="-90" rx="27" ry="18"/>
<text text-anchor="middle" x="139" y="-85.8" font-family="Times,serif" font-size="14.00" fill="#000000">7</text>
</g>
<!-- 5&#45;&gt;7 -->
<g id="edge2" class="edge">
<title>5-&gt;7</title>
<path fill="none" stroke="#000000" d="M111.7146,-144.5708C115.9597,-136.0807 121.1536,-125.6929 125.8663,-116.2674"/>
<polygon fill="#000000" stroke="#000000" points="129.024,-117.7782 130.3657,-107.2687 122.763,-114.6477 129.024,-117.7782"/>
</g>
<!-- 3 -->
<g id="node6" class="node">
<title>3</title>
<ellipse fill="none" stroke="#000000" cx="27" cy="-18" rx="27" ry="18"/>
<text text-anchor="middle" x="27" y="-13.8" font-family="Times,serif" font-size="14.00" fill="#000000">3</text>
</g>
<!-- 4&#45;&gt;3 -->
<g id="edge5" class="edge">
<title>4-&gt;3</title>
<path fill="none" stroke="#000000" d="M57.5206,-72.937C52.6885,-64.2393 46.7111,-53.4799 41.3304,-43.7948"/>
<polygon fill="#000000" stroke="#000000" points="44.3274,-41.9823 36.4114,-34.9405 38.2083,-45.3819 44.3274,-41.9823"/>
</g>
<!-- null0 -->
<g id="node7" class="node">
<title>null0</title>
<ellipse fill="#000000" stroke="#000000" cx="74" cy="-18" rx="1.8" ry="1.8"/>
</g>
<!-- 4&#45;&gt;null0 -->
<g id="edge6" class="edge">
<title>4-&gt;null0</title>
<path fill="none" stroke="#000000" d="M68.7664,-71.8314C70.0473,-58.6567 71.7426,-41.2195 72.8516,-29.8119"/>
<polygon fill="#000000" stroke="#000000" points="76.3402,-30.0985 73.8243,-19.8068 69.373,-29.4211 76.3402,-30.0985"/>
</g>
<!-- 6 -->
<g id="node4" class="node">
<title>6</title>
<ellipse fill="none" stroke="#000000" cx="133" cy="-18" rx="27" ry="18"/>
<text text-anchor="middle" x="133" y="-13.8" font-family="Times,serif" font-size="14.00" fill="#000000">6</text>
</g>
<!-- 7&#45;&gt;6 -->
<g id="edge3" class="edge">
<title>7-&gt;6</title>
<path fill="none" stroke="#000000" d="M137.4859,-71.8314C136.8442,-64.131 136.0812,-54.9743 135.3681,-46.4166"/>
<polygon fill="#000000" stroke="#000000" points="138.8529,-46.088 134.5344,-36.4133 131.8771,-46.6694 138.8529,-46.088"/>
</g>
<!-- 8 -->
<g id="node5" class="node">
<title>8</title>
<ellipse fill="none" stroke="#000000" cx="205" cy="-18" rx="27" ry="18"/>
<text text-anchor="middle" x="205" y="-13.8" font-family="Times,serif" font-size="14.00" fill="#000000">8</text>
</g>
<!-- 7&#45;&gt;8 -->
<g id="edge4" class="edge">
<title>7-&gt;8</title>
<path fill="none" stroke="#000000" d="M153.321,-74.3771C162.2292,-64.659 173.8452,-51.987 183.8075,-41.1191"/>
<polygon fill="#000000" stroke="#000000" points="186.5297,-43.3291 190.7069,-33.5924 181.3696,-38.599 186.5297,-43.3291"/>
</g>
</g>
</svg>