<?xml version="1.0" encoding="UTF-8" standalone="no"?><!DOCTYPE svg PUBLIC "-//W3C//DTD SVG 1.1//EN" "http://www.w3.org/Graphics/SVG/1.1/DTD/svg11.dtd"><!-- Generated by graphviz version 2.40.1 (20161225.0304)
 --><!-- Title: G Pages: 1 --><svg xmlns="http://www.w3.org/2000/svg" xmlns:xlink="http://www.w3.org/1999/xlink" width="86pt" height="116pt" viewBox="0.00 0.00 86.00 116.00">
<g id="graph0" class="graph" transform="scale(1 1) rotate(0) translate(4 112)">
<title>G</title>
<!--<polygon fill="#ffffff" stroke="transparent" points="-4,4 -4,-112 82,-112 82,4 -4,4"/>-->
<!-- 5 -->
<g id="node1" class="node">
<title>5</title>
<ellipse fill="none" stroke="#000000" cx="27" cy="-90" rx="27" ry="18"/>
<text text-anchor="middle" x="27" y="-85.8" font-family="Times,serif" font-size="14.00" fill="#000000">5</text>
</g>
<!-- null0 -->
<g id="node2" class="node">
<title>null0</title>
<ellipse fill="#000000" stroke="#000000" cx="4" cy="-18" rx="1.8" ry="1.8"/>
</g>
<!-- 5&#45;&gt;null0 -->
<g id="edge1" class="edge">
<title>5-&gt;null0</title>
<path fill="none" stroke="#000000" d="M21.3146,-72.2022C17.0619,-58.8895 11.3696,-41.07 7.6934,-29.5618"/>
<polygon fill="#000000" stroke="#000000" points="10.9607,-28.2878 4.5837,-19.8271 4.2927,-30.418 10.9607,-28.2878"/>
</g>
<!-- 7 -->
<g id="node3" class="node">
<title>7</title>
<ellipse fill="none" stroke="#000000" cx="51" cy="-18" rx="27" ry="18"/>
<text text-anchor="middle" x="51" y="-13.8" font-family="Times,serif" font-size="14.00" fill="#000000">7</text>
</g>
<!-- 5&#45;&gt;7 -->
<g id="edge2" class="edge">
<title>5-&gt;7</title>
<path fill="none" stroke="#000000" d="M32.9326,-72.2022C35.6355,-64.0936 38.8957,-54.3129 41.8984,-45.3049"/>
<polygon fill="#000000" stroke="#000000" points="45.2937,-46.1867 45.1357,-35.593 38.6529,-43.973 45.2937,-46.1867"/>
</g>
</g>
</svg>