<?xml version="1.0" encoding="UTF-8" standalone="no"?><!DOCTYPE svg PUBLIC "-//W3C//DTD SVG 1.1//EN" "http://www.w3.org/Graphics/SVG/1.1/DTD/svg11.dtd"><!-- Generated by graphviz version 2.40.1 (20161225.0304)
 --><!-- Title: G Pages: 1 --><svg xmlns="http://www.w3.org/2000/svg" xmlns:xlink="http://www.w3.org/1999/xlink" width="263pt" height="260pt" viewBox="0.00 0.00 263.00 260.00">
<g id="graph0" class="graph" transform="scale(1 1) rotate(0) translate(4 256)">
<title>G</title>
<!-- <polygon fill="#ffffff" stroke="transparent" points="-4,4 -4,-256 259,-256 259,4 -4,4"/> -->
<!-- 5 -->
<g id="node1" class="node">
<title>5</title>
<ellipse fill="none" stroke="#000000" cx="126" cy="-234" rx="27" ry="18"/>
<text text-anchor="middle" x="126" y="-229.8" font-family="Times,serif" font-size="14.00" fill="#000000">5</text>
</g>
<!-- 4 -->
<g id="node2" class="node">
<title>4</title>
<ellipse fill="none" stroke="#000000" cx="90" cy="-162" rx="27" ry="18"/>
<text text-anchor="middle" x="90" y="-157.8" font-family="Times,serif" font-size="14.00" fill="#000000">4</text>
</g>
<!-- 5&#45;&gt;4 -->
<g id="edge1" class="edge">
<title>5-&gt;4</title>
<path fill="none" stroke="#000000" d="M117.2854,-216.5708C113.0403,-208.0807 107.8464,-197.6929 103.1337,-188.2674"/>
<polygon fill="#000000" stroke="#000000" points="106.237,-186.6477 98.6343,-179.2687 99.976,-189.7782 106.237,-186.6477"/>
</g>
<!-- 7 -->
<g id="node3" class="node">
<title>7</title>
<ellipse fill="none" stroke="#000000" cx="162" cy="-162" rx="27" ry="18"/>
<text text-anchor="middle" x="162" y="-157.8" font-family="Times,serif" font-size="14.00" fill="#000000">7</text>
</g>
<!-- 5&#45;&gt;7 -->
<g id="edge2" class="edge">
<title>5-&gt;7</title>
<path fill="none" stroke="#000000" d="M134.7146,-216.5708C138.9597,-208.0807 144.1536,-197.6929 148.8663,-188.2674"/>
<polygon fill="#000000" stroke="#000000" points="152.024,-189.7782 153.3657,-179.2687 145.763,-186.6477 152.024,-189.7782"/>
</g>
<!-- 3 -->
<g id="node6" class="node">
<title>3</title>
<ellipse fill="none" stroke="#000000" cx="50" cy="-90" rx="27" ry="18"/>
<text text-anchor="middle" x="50" y="-85.8" font-family="Times,serif" font-size="14.00" fill="#000000">3</text>
</g>
<!-- 4&#45;&gt;3 -->
<g id="edge5" class="edge">
<title>4-&gt;3</title>
<path fill="none" stroke="#000000" d="M80.5206,-144.937C75.6885,-136.2393 69.7111,-125.4799 64.3304,-115.7948"/>
<polygon fill="#000000" stroke="#000000" points="67.3274,-113.9823 59.4114,-106.9405 61.2083,-117.3819 67.3274,-113.9823"/>
</g>
<!-- null0 -->
<g id="node7" class="node">
<title>null0</title>
<ellipse fill="#000000" stroke="#000000" cx="97" cy="-90" rx="1.8" ry="1.8"/>
</g>
<!-- 4&#45;&gt;null0 -->
<g id="edge6" class="edge">
<title>4-&gt;null0</title>
<path fill="none" stroke="#000000" d="M91.7664,-143.8314C93.0473,-130.6567 94.7426,-113.2195 95.8516,-101.8119"/>
<polygon fill="#000000" stroke="#000000" points="99.3402,-102.0985 96.8243,-91.8068 92.373,-101.4211 99.3402,-102.0985"/>
</g>
<!-- 6 -->
<g id="node4" class="node">
<title>6</title>
<ellipse fill="none" stroke="#000000" cx="156" cy="-90" rx="27" ry="18"/>
<text text-anchor="middle" x="156" y="-85.8" font-family="Times,serif" font-size="14.00" fill="#000000">6</text>
</g>
<!-- 7&#45;&gt;6 -->
<g id="edge3" class="edge">
<title>7-&gt;6</title>
<path fill="none" stroke="#000000" d="M160.4859,-143.8314C159.8442,-136.131 159.0812,-126.9743 158.3681,-118.4166"/>
<polygon fill="#000000" stroke="#000000" points="161.8529,-118.088 157.5344,-108.4133 154.8771,-118.6694 161.8529,-118.088"/>
</g>
<!-- 8 -->
<g id="node5" class="node">
<title>8</title>
<ellipse fill="none" stroke="#000000" cx="228" cy="-90" rx="27" ry="18"/>
<text text-anchor="middle" x="228" y="-85.8" font-family="Times,serif" font-size="14.00" fill="#000000">8</text>
</g>
<!-- 7&#45;&gt;8 -->
<g id="edge4" class="edge">
<title>7-&gt;8</title>
<path fill="none" stroke="#000000" d="M176.321,-146.3771C185.2292,-136.659 196.8452,-123.987 206.8075,-113.1191"/>
<polygon fill="#000000" stroke="#000000" points="209.5297,-115.3291 213.7069,-105.5924 204.3696,-110.599 209.5297,-115.3291"/>
</g>
<!-- 2 -->
<g id="node8" class="node">
<title>2</title>
<ellipse fill="none" stroke="#000000" cx="27" cy="-18" rx="27" ry="18"/>
<text text-anchor="middle" x="27" y="-13.8" font-family="Times,serif" font-size="14.00" fill="#000000">2</text>
</g>
<!-- 3&#45;&gt;2 -->
<g id="edge7" class="edge">
<title>3-&gt;2</title>
<path fill="none" stroke="#000000" d="M44.3146,-72.2022C41.7437,-64.1541 38.6466,-54.4588 35.7868,-45.5067"/>
<polygon fill="#000000" stroke="#000000" points="39.0768,-44.3033 32.6997,-35.8425 32.4087,-46.4334 39.0768,-44.3033"/>
</g>
<!-- null1 -->
<g id="node9" class="node">
<title>null1</title>
<ellipse fill="#000000" stroke="#000000" cx="74" cy="-18" rx="1.8" ry="1.8"/>
</g>
<!-- 3&#45;&gt;null1 -->
<g id="edge8" class="edge">
<title>3-&gt;null1</title>
<path fill="none" stroke="#000000" d="M55.9326,-72.2022C60.3702,-58.8895 66.31,-41.07 70.1461,-29.5618"/>
<polygon fill="#000000" stroke="#000000" points="73.549,-30.4208 73.391,-19.8271 66.9082,-28.2071 73.549,-30.4208"/>
</g>
</g>
</svg>