<?xml version="1.0" encoding="UTF-8" standalone="no"?><!DOCTYPE svg PUBLIC "-//W3C//DTD SVG 1.1//EN" "http://www.w3.org/Graphics/SVG/1.1/DTD/svg11.dtd"><!-- Generated by graphviz version 2.40.1 (20161225.0304)
 --><!-- Title: G Pages: 1 --><svg xmlns="http://www.w3.org/2000/svg" xmlns:xlink="http://www.w3.org/1999/xlink" width="286pt" height="332pt" viewBox="0.00 0.00 286.00 332.00">
<g id="graph0" class="graph" transform="scale(1 1) rotate(0) translate(4 328)">
<title>G</title>
<!-- <polygon fill="#ffffff" stroke="transparent" points="-4,4 -4,-328 282,-328 282,4 -4,4"/> -->
<!-- 5 -->
<g id="node1" class="node">
<title>5</title>
<ellipse fill="none" stroke="#000000" cx="149" cy="-306" rx="27" ry="18"/>
<text text-anchor="middle" x="149" y="-301.8" font-family="Times,serif" font-size="14.00" fill="#000000">5</text>
</g>
<!-- 4 -->
<g id="node2" class="node">
<title>4</title>
<ellipse fill="none" stroke="#000000" cx="113" cy="-234" rx="27" ry="18"/>
<text text-anchor="middle" x="113" y="-229.8" font-family="Times,serif" font-size="14.00" fill="#000000">4</text>
</g>
<!-- 5&#45;&gt;4 -->
<g id="edge1" class="edge">
<title>5-&gt;4</title>
<path fill="none" stroke="#000000" d="M140.2854,-288.5708C136.0403,-280.0807 130.8464,-269.6929 126.1337,-260.2674"/>
<polygon fill="#000000" stroke="#000000" points="129.237,-258.6477 121.6343,-251.2687 122.976,-261.7782 129.237,-258.6477"/>
</g>
<!-- 7 -->
<g id="node3" class="node">
<title>7</title>
<ellipse fill="none" stroke="#000000" cx="185" cy="-234" rx="27" ry="18"/>
<text text-anchor="middle" x="185" y="-229.8" font-family="Times,serif" font-size="14.00" fill="#000000">7</text>
</g>
<!-- 5&#45;&gt;7 -->
<g id="edge2" class="edge">
<title>5-&gt;7</title>
<path fill="none" stroke="#000000" d="M157.7146,-288.5708C161.9597,-280.0807 167.1536,-269.6929 171.8663,-260.2674"/>
<polygon fill="#000000" stroke="#000000" points="175.024,-261.7782 176.3657,-251.2687 168.763,-258.6477 175.024,-261.7782"/>
</g>
<!-- 3 -->
<g id="node6" class="node">
<title>3</title>
<ellipse fill="none" stroke="#000000" cx="73" cy="-162" rx="27" ry="18"/>
<text text-anchor="middle" x="73" y="-157.8" font-family="Times,serif" font-size="14.00" fill="#000000">3</text>
</g>
<!-- 4&#45;&gt;3 -->
<g id="edge5" class="edge">
<title>4-&gt;3</title>
<path fill="none" stroke="#000000" d="M103.5206,-216.937C98.6885,-208.2393 92.7111,-197.4799 87.3304,-187.7948"/>
<polygon fill="#000000" stroke="#000000" points="90.3274,-185.9823 82.4114,-178.9405 84.2083,-189.3819 90.3274,-185.9823"/>
</g>
<!-- null0 -->
<g id="node7" class="node">
<title>null0</title>
<ellipse fill="#000000" stroke="#000000" cx="120" cy="-162" rx="1.8" ry="1.8"/>
</g>
<!-- 4&#45;&gt;null0 -->
<g id="edge6" class="edge">
<title>4-&gt;null0</title>
<path fill="none" stroke="#000000" d="M114.7664,-215.8314C116.0473,-202.6567 117.7426,-185.2195 118.8516,-173.8119"/>
<polygon fill="#000000" stroke="#000000" points="122.3402,-174.0985 119.8243,-163.8068 115.373,-173.4211 122.3402,-174.0985"/>
</g>
<!-- 6 -->
<g id="node4" class="node">
<title>6</title>
<ellipse fill="none" stroke="#000000" cx="179" cy="-162" rx="27" ry="18"/>
<text text-anchor="middle" x="179" y="-157.8" font-family="Times,serif" font-size="14.00" fill="#000000">6</text>
</g>
<!-- 7&#45;&gt;6 -->
<g id="edge3" class="edge">
<title>7-&gt;6</title>
<path fill="none" stroke="#000000" d="M183.4859,-215.8314C182.8442,-208.131 182.0812,-198.9743 181.3681,-190.4166"/>
<polygon fill="#000000" stroke="#000000" points="184.8529,-190.088 180.5344,-180.4133 177.8771,-190.6694 184.8529,-190.088"/>
</g>
<!-- 8 -->
<g id="node5" class="node">
<title>8</title>
<ellipse fill="none" stroke="#000000" cx="251" cy="-162" rx="27" ry="18"/>
<text text-anchor="middle" x="251" y="-157.8" font-family="Times,serif" font-size="14.00" fill="#000000">8</text>
</g>
<!-- 7&#45;&gt;8 -->
<g id="edge4" class="edge">
<title>7-&gt;8</title>
<path fill="none" stroke="#000000" d="M199.321,-218.3771C208.2292,-208.659 219.8452,-195.987 229.8075,-185.1191"/>
<polygon fill="#000000" stroke="#000000" points="232.5297,-187.3291 236.7069,-177.5924 227.3696,-182.599 232.5297,-187.3291"/>
</g>
<!-- 2 -->
<g id="node8" class="node">
<title>2</title>
<ellipse fill="none" stroke="#000000" cx="50" cy="-90" rx="27" ry="18"/>
<text text-anchor="middle" x="50" y="-85.8" font-family="Times,serif" font-size="14.00" fill="#000000">2</text>
</g>
<!-- 3&#45;&gt;2 -->
<g id="edge7" class="edge">
<title>3-&gt;2</title>
<path fill="none" stroke="#000000" d="M67.3146,-144.2022C64.7437,-136.1541 61.6466,-126.4588 58.7868,-117.5067"/>
<polygon fill="#000000" stroke="#000000" points="62.0768,-116.3033 55.6997,-107.8425 55.4087,-118.4334 62.0768,-116.3033"/>
</g>
<!-- null1 -->
<g id="node9" class="node">
<title>null1</title>
<ellipse fill="#000000" stroke="#000000" cx="97" cy="-90" rx="1.8" ry="1.8"/>
</g>
<!-- 3&#45;&gt;null1 -->
<g id="edge8" class="edge">
<title>3-&gt;null1</title>
<path fill="none" stroke="#000000" d="M78.9326,-144.2022C83.3702,-130.8895 89.31,-113.07 93.1461,-101.5618"/>
<polygon fill="#000000" stroke="#000000" points="96.549,-102.4208 96.391,-91.8271 89.9082,-100.2071 96.549,-102.4208"/>
</g>
<!-- 1 -->
<g id="node10" class="node">
<title>1</title>
<ellipse fill="none" stroke="#000000" cx="27" cy="-18" rx="27" ry="18"/>
<text text-anchor="middle" x="27" y="-13.8" font-family="Times,serif" font-size="14.00" fill="#000000">1</text>
</g>
<!-- 2&#45;&gt;1 -->
<g id="edge9" class="edge">
<title>2-&gt;1</title>
<path fill="none" stroke="#000000" d="M44.3146,-72.2022C41.7437,-64.1541 38.6466,-54.4588 35.7868,-45.5067"/>
<polygon fill="#000000" stroke="#000000" points="39.0768,-44.3033 32.6997,-35.8425 32.4087,-46.4334 39.0768,-44.3033"/>
</g>
<!-- null2 -->
<g id="node11" class="node">
<title>null2</title>
<ellipse fill="#000000" stroke="#000000" cx="74" cy="-18" rx="1.8" ry="1.8"/>
</g>
<!-- 2&#45;&gt;null2 -->
<g id="edge10" class="edge">
<title>2-&gt;null2</title>
<path fill="none" stroke="#000000" d="M55.9326,-72.2022C60.3702,-58.8895 66.31,-41.07 70.1461,-29.5618"/>
<polygon fill="#000000" stroke="#000000" points="73.549,-30.4208 73.391,-19.8271 66.9082,-28.2071 73.549,-30.4208"/>
</g>
</g>
</svg>